<?xml version="1.0" encoding="UTF-8" standalone="no"?><!DOCTYPE svg PUBLIC "-//W3C//DTD SVG 1.1//EN" "http://www.w3.org/Graphics/SVG/1.1/DTD/svg11.dtd"><svg width="100%" height="100%" viewBox="0 0 250 250" version="1.1" xmlns="http://www.w3.org/2000/svg" xmlns:xlink="http://www.w3.org/1999/xlink" xml:space="preserve" xmlns:serif="http://www.serif.com/" style="fill-rule:evenodd;clip-rule:evenodd;stroke-linecap:round;stroke-linejoin:round;stroke-miterlimit:1.5;"><g id="Layer1"><path d="M167.556,33.284c19.511,18.57 51.418,44.635 51.699,45.031" style="fill:none;stroke:#000;stroke-width:3px;"/></g><g id="Layer4"><path d="M202.814,95.873c-1.548,1.815 -48.031,-43.587 -48.031,-43.587c0,0 -81.15,91.68 -81.911,91.593c-0.76,-0.088 38.445,39.478 38.445,39.478c0,0 21.37,-20.511 43.457,-41.672c24.001,-22.995 48.847,-46.758 48.04,-45.812Z" style="fill:none;stroke:#000;stroke-width:3px;"/></g><g id="Layer5"><path d="M137.847,71.108l24.126,28.323" style="fill:none;stroke:#000;stroke-width:3px;"/><g id="Layer3"><path d="M205.472,66.694l-15.57,18.367" style="fill:none;stroke:#000;stroke-width:3px;"/><path d="M182.181,47.579l-14.625,16.381" style="fill:none;stroke:#000;stroke-width:3px;"/></g></g><g id="Layer6"><path d="M121.334,89.722l16.509,14.088" style="fill:none;stroke:#000;stroke-width:3px;"/></g><g id="Layer7"><path d="M102.749,110.957l22.251,23.71" style="fill:none;stroke:#000;stroke-width:3px;"/></g><g id="Layer8"><path d="M87.211,129.402l15.538,12.895" style="fill:none;stroke:#000;stroke-width:3px;"/></g><g id="Layer9"><path d="M77.302,149.686l-18.428,33.671l10.397,10.568l36.034,-15.905" style="fill:none;stroke:#000;stroke-width:3px;"/></g></svg>